<svg width="19" height="18" viewBox="0 0 19 18" fill="none" xmlns="http://www.w3.org/2000/svg">
<rect x="0.25" y="0.25" width="18.5" height="17.5" rx="8.75" stroke="url(#paint0_linear_4359_20980)" stroke-width="0.5"/>
<path d="M8.74992 13.4785H7.16659C5.33742 13.4785 4.52075 12.6618 4.52075 10.8327V9.24935C4.52075 7.42018 5.33742 6.60352 7.16659 6.60352H8.41659C8.58742 6.60352 8.72909 6.74518 8.72909 6.91602C8.72909 7.08685 8.58742 7.22852 8.41659 7.22852H7.16659C5.67492 7.22852 5.14575 7.75768 5.14575 9.24935V10.8327C5.14575 12.3243 5.67492 12.8535 7.16659 12.8535H8.74992C10.2416 12.8535 10.7708 12.3243 10.7708 10.8327V9.58268C10.7708 9.41185 10.9124 9.27018 11.0833 9.27018C11.2541 9.27018 11.3958 9.41185 11.3958 9.58268V10.8327C11.3958 12.6618 10.5791 13.4785 8.74992 13.4785Z" fill="url(#paint1_linear_4359_20980)"/>
<path d="M11.0834 9.89652H9.75008C8.57925 9.89652 8.10425 9.42152 8.10425 8.25069V6.91735C8.10425 6.79235 8.17925 6.67569 8.29591 6.62985C8.41258 6.57985 8.54591 6.60902 8.63758 6.69652L11.3042 9.36319C11.3917 9.45069 11.4209 9.58819 11.3709 9.70485C11.3251 9.82152 11.2084 9.89652 11.0834 9.89652ZM8.72925 7.67152V8.25069C8.72925 9.07985 8.92091 9.27152 9.75008 9.27152H10.3292L8.72925 7.67152Z" fill="url(#paint2_linear_4359_20980)"/>
<path d="M10.4999 5.14648H8.83325C8.66242 5.14648 8.52075 5.00482 8.52075 4.83398C8.52075 4.66315 8.66242 4.52148 8.83325 4.52148H10.4999C10.6708 4.52148 10.8124 4.66315 10.8124 4.83398C10.8124 5.00482 10.6708 5.14648 10.4999 5.14648Z" fill="url(#paint3_linear_4359_20980)"/>
<path d="M6.91675 6.39648C6.74591 6.39648 6.60425 6.25482 6.60425 6.08398C6.60425 5.22148 7.30425 4.52148 8.16675 4.52148H9.25841C9.42925 4.52148 9.57091 4.66315 9.57091 4.83398C9.57091 5.00482 9.42925 5.14648 9.25841 5.14648H8.16675C7.65008 5.14648 7.22925 5.56732 7.22925 6.08398C7.22925 6.25482 7.08758 6.39648 6.91675 6.39648Z" fill="url(#paint4_linear_4359_20980)"/>
<path d="M11.9958 11.3965C11.825 11.3965 11.6833 11.2548 11.6833 11.084C11.6833 10.9132 11.825 10.7715 11.9958 10.7715C12.4708 10.7715 12.8542 10.384 12.8542 9.91315V7.33398C12.8542 7.16315 12.9958 7.02148 13.1667 7.02148C13.3375 7.02148 13.4792 7.16315 13.4792 7.33398V9.91315C13.4792 10.7298 12.8125 11.3965 11.9958 11.3965Z" fill="url(#paint5_linear_4359_20980)"/>
<path d="M13.1667 7.64587H11.9167C10.8084 7.64587 10.3542 7.1917 10.3542 6.08337V4.83337C10.3542 4.70837 10.4292 4.5917 10.5459 4.54587C10.6626 4.49587 10.7959 4.52504 10.8876 4.61254L13.3876 7.11254C13.4751 7.20004 13.5042 7.33754 13.4542 7.4542C13.4084 7.57087 13.2917 7.64587 13.1667 7.64587ZM10.9792 5.58754V6.08337C10.9792 6.84587 11.1542 7.02087 11.9167 7.02087H12.4126L10.9792 5.58754Z" fill="url(#paint6_linear_4359_20980)"/>
<defs>
<linearGradient id="paint0_linear_4359_20980" x1="-2.81868" y1="9.08911" x2="20.2527" y2="9.08911" gradientUnits="userSpaceOnUse">
<stop stop-color="#51A3DA"/>
<stop offset="1" stop-color="#195176"/>
</linearGradient>
<linearGradient id="paint1_linear_4359_20980" x1="3.50083" y1="10.0751" x2="11.849" y2="10.0751" gradientUnits="userSpaceOnUse">
<stop stop-color="#51A3DA"/>
<stop offset="1" stop-color="#195176"/>
</linearGradient>
<linearGradient id="paint2_linear_4359_20980" x1="7.61602" y1="8.26729" x2="11.6123" y2="8.26729" gradientUnits="userSpaceOnUse">
<stop stop-color="#51A3DA"/>
<stop offset="1" stop-color="#195176"/>
</linearGradient>
<linearGradient id="paint3_linear_4359_20980" x1="8.18078" y1="4.83708" x2="10.9635" y2="4.83708" gradientUnits="userSpaceOnUse">
<stop stop-color="#51A3DA"/>
<stop offset="1" stop-color="#195176"/>
</linearGradient>
<linearGradient id="paint4_linear_4359_20980" x1="6.16414" y1="5.46827" x2="9.76652" y2="5.46827" gradientUnits="userSpaceOnUse">
<stop stop-color="#51A3DA"/>
<stop offset="1" stop-color="#195176"/>
</linearGradient>
<linearGradient id="paint5_linear_4359_20980" x1="11.4169" y1="9.23064" x2="13.5976" y2="9.23064" gradientUnits="userSpaceOnUse">
<stop stop-color="#51A3DA"/>
<stop offset="1" stop-color="#195176"/>
</linearGradient>
<linearGradient id="paint6_linear_4359_20980" x1="9.89074" y1="6.09914" x2="13.6846" y2="6.09914" gradientUnits="userSpaceOnUse">
<stop stop-color="#51A3DA"/>
<stop offset="1" stop-color="#195176"/>
</linearGradient>
</defs>
</svg>
