<svg width="27" height="27" viewBox="0 0 27 27" fill="none" xmlns="http://www.w3.org/2000/svg">
<path fill-rule="evenodd" clip-rule="evenodd" d="M25.9759 8.03909V19.1852C25.9759 23.315 23.3914 26.2276 19.2617 26.2276H7.43321C3.30349 26.2276 0.732666 23.315 0.732666 19.1852V8.03909C0.732666 3.90937 3.31716 0.998047 7.43321 0.998047H19.2617C23.3914 0.998047 25.9759 3.90937 25.9759 8.03909Z" stroke="#2390FA" stroke-width="0.586053" stroke-linecap="round" stroke-linejoin="round"/>
<path d="M4.19409 19.7065L6.28357 17.5008C7.00969 16.7309 8.21989 16.694 8.99113 17.4187C9.01438 17.442 10.2724 18.7206 10.2724 18.7206C11.0314 19.4932 12.2717 19.5055 13.0443 18.7479C13.0949 18.6987 16.2359 14.8889 16.2359 14.8889C17.0455 13.9057 18.4991 13.7649 19.4836 14.5758C19.5493 14.6305 22.5167 17.6758 22.5167 17.6758" stroke="#2390FA" stroke-width="0.586053" stroke-linecap="round" stroke-linejoin="round"/>
<path fill-rule="evenodd" clip-rule="evenodd" d="M11.0741 9.72665C11.0741 11.0517 10.0007 12.1252 8.67562 12.1252C7.35055 12.1252 6.2771 11.0517 6.2771 9.72665C6.2771 8.40158 7.35055 7.32812 8.67562 7.32812C10.0007 7.32949 11.0741 8.40158 11.0741 9.72665Z" stroke="#2390FA" stroke-width="0.586053" stroke-linecap="round" stroke-linejoin="round"/>
</svg>
